<svg width="20" height="20" viewBox="0 0 20 20" fill="none" xmlns="http://www.w3.org/2000/svg">
<path d="M8.33301 10.8333C8.69088 11.3118 9.14747 11.7077 9.6718 11.9941C10.1961 12.2806 10.7759 12.4509 11.3719 12.4936C11.9678 12.5363 12.566 12.4503 13.1258 12.2415C13.6856 12.0327 14.1939 11.7059 14.6163 11.2833L17.1163 8.78335C17.8753 7.9975 18.2953 6.94499 18.2858 5.85251C18.2763 4.76002 17.8381 3.71497 17.0656 2.94243C16.2931 2.1699 15.248 1.7317 14.1555 1.7222C13.063 1.71271 12.0105 2.13269 11.2247 2.89168L9.79134 4.31668" stroke="#B4B2B2" stroke-width="1.2" stroke-linecap="round" stroke-linejoin="round"/>
<path d="M11.6668 9.16668C11.309 8.68824 10.8524 8.29236 10.328 8.0059C9.80371 7.71943 9.22391 7.54908 8.62796 7.5064C8.032 7.46372 7.43384 7.54971 6.87404 7.75853C6.31425 7.96735 5.8059 8.29412 5.3835 8.71668L2.8835 11.2167C2.12451 12.0025 1.70453 13.055 1.71402 14.1475C1.72352 15.24 2.16172 16.2851 2.93426 17.0576C3.70679 17.8301 4.75184 18.2683 5.84433 18.2778C6.93681 18.2873 7.98932 17.8673 8.77517 17.1083L10.2002 15.6833" stroke="#B4B2B2" stroke-width="1.2" stroke-linecap="round" stroke-linejoin="round"/>
</svg>
